# xmcd
#
# Track frame offsets:
#	150
#	13950
#	26515
#	42717
#	51645
#	64470
#	73620
#	84880
#	97022
#	106620
#	120950
#	133040
#	143607
#	156327
#	167962
#	180532
#	194360
#	209140
#	223687
#	235865
#	248520
#	260210
#	274097
#	288862
#	301917
#	314295
#
# Disc length: 4342 seconds
#
# Revision: 0
# Processed by: cddbd v1.5.2PL0 Copyright (c) Steve Scherf et al.
# Submitted via: EasyCDDAExtractor 16.0.6.1
#
DISCID=8910f41a
DTITLE=Συλλογικός δίσκος - Ζούσα μοναχός χωρίς αγάπη-Παλιά φρουρά
DYEAR=1978
DGENRE=Ρεμπέτικη
TTITLE0=Γκόγκος Δημήτρης ή Μπαγιαντέρας - Περαιωτοπούλα
TTITLE1=Γκόγκος Δημήτρης ή Μπαγιαντέρας - Σαν μαγεμένο το μυαλό μου
TTITLE2=Γκόγκος Δημήτρης ή Μπαγιαντέρας - Από βραδύς ξεκίνησα
TTITLE3=Γκόγκος Δημήτρης ή Μπαγιαντέρας - Ρε καπνουλού μου όμορφη
TTITLE4=Γκόγκος Δημήτρης ή Μπαγιαντέρας - Ναζιάρα σε φωνάζουνε
TTITLE5=Γκόγκος Δημήτρης ή Μπαγιαντέρας - Εσύ είσαι τρελλοκόριτσο
TTITLE6=Γκόγκος Δημήτρης ή Μπαγιαντέρας - Μέσα στης ζωής τα μονοπάτια
TTITLE7=Γκόγκος Δημήτρης ή Μπαγιαντέρας - Ζούσα μοναχός χωρίς αγάπη
TTITLE8=Γκόγκος Δημήτρης ή Μπαγιαντέρας - Μαραίνεται η καρδούλα μου
TTITLE9=Γκόγκος Δημήτρης ή Μπαγιαντέρας - Γλυκειά Κουτσουκαριώτισσα
TTITLE10=Γκόγκος Δημήτρης ή Μπαγιαντέρας - Πασαλιμανιώτισσα
TTITLE11=Γκόγκος Δημήτρης ή Μπαγιαντέρας - Όμορφη Σαλονικιά μου
TTITLE12=Φράττης Δημήτρης ή Μητσάρας - Τα τάλληρα [ζεϊμπέκικο]
TTITLE13=Μοσχονάς Οδυσσέας - Τι σού έκανα μικρό μου [χασάπικο]
TTITLE14=Φράττης Δημήτρης ή Μητσάρας - Εγώ είμαι ένα καλό παιδί [ζεϊμπέκικο]
TTITLE15=Μοσχονάς Αλ. - Η τσιγγάνα
TTITLE16=Φράττης Δημήτρης ή Μητσάρας - Το καπηλειό του Ντάλα [ζεϊμπέκικο]
TTITLE17=Μοσχονάς Οδυσσέας - Κουκλάκι
TTITLE18=Φράττης Δημήτρης ή Μητσάρας - Με πολεμάς μπαμπέσικα [ζεϊμπέκικο]
TTITLE19=Μοσχονάς Οδυσσέας - Ο Χάρος τρελλάθηκε [ζεϊμπέκικο]
TTITLE20=Μοσχονάς Οδυσσέας - Μοίρα μου στα δευτέρια σου [χασάπικο]
TTITLE21=Φράττης Δημήτρης ή Μητσάρας - Το στέκι του Αναστάση [χασάπικο]
TTITLE22=Μοσχονάς Οδυσσέας - Μπήκα στου Χάρου την φωλιά [ζεϊμπέκικο]
TTITLE23=Μοσχονάς Οδυσσέας-Φράττης Δημήτρης ή Μητσάρας - Βαρέθηκα το ούζο πια 
TTITLE23=[ζεϊμπέκικο]
TTITLE24=Μοσχονάς Αλ. - Σκάλα-σκάλα κατεβαίνω [ζεϊμπέκικο]
TTITLE25=Φράττης Δημήτρης ή Μητσάρας - Ο τρακαδόρος [ζεϊμπέκικο]
EXTD=
EXTT0=
EXTT1=
EXTT2=
EXTT3=
EXTT4=
EXTT5=
EXTT6=
EXTT7=
EXTT8=
EXTT9=
EXTT10=
EXTT11=
EXTT12=
EXTT13=
EXTT14=
EXTT15=
EXTT16=
EXTT17=
EXTT18=
EXTT19=
EXTT20=
EXTT21=
EXTT22=
EXTT23=
EXTT24=
EXTT25=
PLAYORDER=
